<svg xmlns="http://www.w3.org/2000/svg" xmlns:xlink="http://www.w3.org/1999/xlink" version="1.1" preserveAspectRatio="none" x="0px" y="0px" viewBox="0 0 100 125"><defs><g id="a"><path fill="#000000" stroke="none" d=" M 31.55 25.45 Q 31.546484375 25.0392578125 31.25 24.75 30.9607421875 24.453515625 30.55 24.45 30.1392578125 24.453515625 29.85 24.75 29.553515625 25.0392578125 29.55 25.45 L 29.55 30.3 27 30.3 Q 26.5892578125 30.303515625 26.3 30.6 26.003515625 30.8892578125 26 31.3 L 26 60.05 Q 26.003515625 60.4607421875 26.3 60.75 26.5892578125 61.046484375 27 61.05 L 29.55 61.05 29.55 62.65 Q 29.553515625 63.0607421875 29.85 63.35 30.1392578125 63.646484375 30.55 63.65 30.9607421875 63.646484375 31.25 63.35 31.546484375 63.0607421875 31.55 62.65 L 31.55 61.05 33.9 61.05 Q 34.3107421875 61.046484375 34.6 60.75 34.896484375 60.4607421875 34.9 60.05 L 34.9 31.3 Q 34.896484375 30.8892578125 34.6 30.6 34.3107421875 30.303515625 33.9 30.3 L 31.55 30.3 31.55 25.45 M 17.2 41.5 Q 16.7892578125 41.503515625 16.5 41.8 16.203515625 42.0892578125 16.2 42.5 L 16.2 84.15 Q 16.203515625 84.5607421875 16.5 84.85 16.7892578125 85.146484375 17.2 85.15 L 19.75 85.15 19.75 87.75 Q 19.753515625 88.1607421875 20.05 88.45 20.3392578125 88.746484375 20.75 88.75 21.1607421875 88.746484375 21.45 88.45 21.746484375 88.1607421875 21.75 87.75 L 21.75 85.15 24.1 85.15 Q 24.5107421875 85.146484375 24.8 84.85 25.096484375 84.5607421875 25.1 84.15 L 25.1 42.5 Q 25.096484375 42.0892578125 24.8 41.8 24.5107421875 41.503515625 24.1 41.5 L 21.75 41.5 21.75 40.75 Q 21.746484375 40.3392578125 21.45 40.05 21.1607421875 39.753515625 20.75 39.75 20.3392578125 39.753515625 20.05 40.05 19.753515625 40.3392578125 19.75 40.75 L 19.75 41.5 17.2 41.5 M 18.2 43.5 L 23.1 43.5 23.1 83.15 18.2 83.15 18.2 43.5 M 41.35 39.95 Q 41.346484375 39.5392578125 41.05 39.25 40.7607421875 38.953515625 40.35 38.95 39.9392578125 38.953515625 39.65 39.25 39.353515625 39.5392578125 39.35 39.95 L 39.35 44.8 36.8 44.8 Q 36.3892578125 44.803515625 36.1 45.1 35.803515625 45.3892578125 35.8 45.8 L 35.8 74.55 Q 35.803515625 74.9607421875 36.1 75.25 36.3892578125 75.546484375 36.8 75.55 L 39.35 75.55 39.35 78.75 Q 39.353515625 79.1607421875 39.65 79.45 39.9392578125 79.746484375 40.35 79.75 40.7607421875 79.746484375 41.05 79.45 41.346484375 79.1607421875 41.35 78.75 L 41.35 75.55 43.7 75.55 Q 44.1107421875 75.546484375 44.4 75.25 44.696484375 74.9607421875 44.7 74.55 L 44.7 45.8 Q 44.696484375 45.3892578125 44.4 45.1 44.1107421875 44.803515625 43.7 44.8 L 41.35 44.8 41.35 39.95 M 50.45 34.5 Q 50.1607421875 34.203515625 49.75 34.2 49.3392578125 34.203515625 49.05 34.5 48.753515625 34.7892578125 48.75 35.2 L 48.75 40.05 46.2 40.05 Q 45.7892578125 40.053515625 45.5 40.35 45.203515625 40.6392578125 45.2 41.05 L 45.2 49.8 Q 45.203515625 50.2107421875 45.5 50.5 45.7892578125 50.796484375 46.2 50.8 L 48.75 50.8 48.75 55.05 Q 48.753515625 55.4607421875 49.05 55.75 49.3392578125 56.046484375 49.75 56.05 50.1607421875 56.046484375 50.45 55.75 50.746484375 55.4607421875 50.75 55.05 L 50.75 50.8 53.1 50.8 Q 53.5107421875 50.796484375 53.8 50.5 54.096484375 50.2107421875 54.1 49.8 L 54.1 41.05 Q 54.096484375 40.6392578125 53.8 40.35 53.5107421875 40.053515625 53.1 40.05 L 50.75 40.05 50.75 35.2 Q 50.746484375 34.7892578125 50.45 34.5 M 59.85 21.85 Q 59.846484375 21.4392578125 59.55 21.15 59.2607421875 20.853515625 58.85 20.85 58.4392578125 20.853515625 58.15 21.15 57.853515625 21.4392578125 57.85 21.85 L 57.85 35.8 55.5 35.8 Q 55.0892578125 35.803515625 54.8 36.1 54.503515625 36.3892578125 54.5 36.8 L 54.5 45.55 Q 54.503515625 45.9607421875 54.8 46.25 55.0892578125 46.546484375 55.5 46.55 L 57.85 46.55 57.85 48.5 Q 57.853515625 48.9107421875 58.15 49.2 58.4392578125 49.496484375 58.85 49.5 59.2607421875 49.496484375 59.55 49.2 59.846484375 48.9107421875 59.85 48.5 L 59.85 46.55 62.4 46.55 Q 62.8107421875 46.546484375 63.1 46.25 63.396484375 45.9607421875 63.4 45.55 L 63.4 36.8 Q 63.396484375 36.3892578125 63.1 36.1 62.8107421875 35.803515625 62.4 35.8 62.26875 35.801171875 62.15 35.8 62.03125 35.801171875 61.9 35.8 L 59.85 35.8 59.85 21.85 M 56.5 44.55 L 56.5 37.8 61.4 37.8 61.4 44.55 56.5 44.55 M 69.4 8.65 Q 69.396484375 8.2392578125 69.1 7.95 68.8107421875 7.653515625 68.4 7.65 67.9892578125 7.653515625 67.7 7.95 67.403515625 8.2392578125 67.4 8.65 L 67.4 13.05 64.85 13.05 Q 64.4392578125 13.053515625 64.15 13.35 63.853515625 13.6392578125 63.85 14.05 L 63.85 42.8 Q 63.853515625 43.2107421875 64.15 43.5 64.4392578125 43.796484375 64.85 43.8 L 67.4 43.8 67.4 52.55 Q 67.403515625 52.9607421875 67.7 53.25 67.9892578125 53.546484375 68.4 53.55 68.8107421875 53.546484375 69.1 53.25 69.396484375 52.9607421875 69.4 52.55 L 69.4 43.8 71.75 43.8 Q 72.1607421875 43.796484375 72.45 43.5 72.746484375 43.2107421875 72.75 42.8 L 72.75 14.05 Q 72.746484375 13.6392578125 72.45 13.35 72.1607421875 13.053515625 71.75 13.05 L 69.4 13.05 69.4 8.65 M 90.6 91.55 Q 90.603515625 91.9607421875 90.9 92.25 L 91.65 93 5.55 93 5.55 9.45 6.35 10.25 Q 6.656640625 10.56015625 7.05 10.55 7.4873046875 10.5455078125 7.75 10.25 8.0603515625 9.944140625 8.05 9.5 8.04453125 9.1126953125 7.75 8.8 L 5 6.1 Q 4.705078125 5.8435546875 4.3 5.85 3.891015625 5.858203125 3.6 6.15 L 0.9 8.85 Q 0.603515625 9.1392578125 0.6 9.55 0.603515625 9.9607421875 0.9 10.25 1.1892578125 10.546484375 1.6 10.55 2.0107421875 10.546484375 2.3 10.25 L 3.05 9.5 3.05 94.25 Q 3.0544921875 94.76328125 3.4 95.1 3.78671875 95.4955078125 4.3 95.5 L 91.65 95.5 90.85 96.3 Q 90.58984375 96.606640625 90.6 97 90.6044921875 97.4373046875 90.9 97.7 91.2056640625 98.0103515625 91.6 98 92.037109375 97.99453125 92.3 97.7 L 95 94.95 Q 95.3064453125 94.655078125 95.3 94.25 95.291796875 93.841015625 95 93.55 L 92.3 90.85 Q 92.0107421875 90.553515625 91.6 90.55 91.1892578125 90.553515625 90.9 90.85 90.603515625 91.1392578125 90.6 91.55 M 82.05 33.15 Q 81.7607421875 32.853515625 81.35 32.85 L 79 32.85 79 32.1 Q 78.996484375 31.6892578125 78.7 31.4 78.4107421875 31.103515625 78 31.1 77.5892578125 31.103515625 77.3 31.4 77.003515625 31.6892578125 77 32.1 L 77 32.85 74.45 32.85 Q 74.0392578125 32.853515625 73.75 33.15 73.453515625 33.4392578125 73.45 33.85 L 73.45 75.5 Q 73.453515625 75.9107421875 73.75 76.2 74.0392578125 76.496484375 74.45 76.5 L 77 76.5 77 79.1 Q 77.003515625 79.5107421875 77.3 79.8 77.5892578125 80.096484375 78 80.1 78.4107421875 80.096484375 78.7 79.8 78.996484375 79.5107421875 79 79.1 L 79 76.5 81.35 76.5 Q 81.7607421875 76.496484375 82.05 76.2 82.346484375 75.9107421875 82.35 75.5 L 82.35 33.85 Q 82.346484375 33.4392578125 82.05 33.15 M 75.45 34.85 L 80.35 34.85 80.35 74.5 75.45 74.5 75.45 34.85 Z"/></g></defs><g transform="matrix( 1, 0, 0, 1, 0,0) "><use xlink:href="#a"/></g></svg>